<svg fill="currentColor" role="img" viewBox="0 0 24 24" xmlns="http://www.w3.org/2000/svg">
  <path d="M12.009 4.907c-1.198 0-2.298.342-3.255.984-.154.104-.198.29-.1.436l.754 1.14c.095.14.284.186.438.11a4.8 4.8 0 0 1 2.163-.542 4.8 4.8 0 0 1 2.105.514c.154.074.34.032.437-.106l.792-1.123c.102-.145.058-.334-.094-.44a7.24 7.24 0 0 0-3.24-.973zm-6.73 3.698c-.552 0-1.087.105-1.596.308-.896.352-1.642 1.008-2.108 1.852-.464.842-.633 1.813-.48 2.738.156.932.605 1.774 1.27 2.386s1.52.976 2.47 1.036c.95.06 1.893-.22 2.664-.788.772-.565 1.334-1.394 1.587-2.34.256-.948.19-1.952-.185-2.858s-1.03-1.658-1.843-2.11a3.96 3.96 0 0 0-1.78-.423zm14.96 0c-.585 0-1.158.14-1.684.404-.853.427-1.52 1.16-1.873 2.05-.355.89-.43 1.888-.212 2.822.215.932.754 1.775 1.508 2.36.753.584 1.693.89 2.644.858s1.86-.431 2.52-1.03c.66-.6 1.106-1.44 1.25-2.36.144-.915-.03-1.872-.49-2.707-.46-.833-1.2-1.494-2.085-1.86a3.94 3.94 0 0 0-1.578-.316zm-14.96 1.103c.31 0 .62.064.905.189.47.188.876.532 1.127.994.252.463.353 1.004.286 1.532-.066.525-.324 1.01-.7 1.37a2.73 2.73 0 0 1-1.408.66c-.52.04-1.035-.078-1.474-.34a2.18 2.18 0 0 1-.909-1.24c-.145-.528-.114-1.094.086-1.607s.557-.933 1.022-1.183c.32-.17.675-.258 1.033-.258zm14.96 0c.346 0 .69.085 1.005.25.44.227.795.634.99 1.126s.247 1.052.14 1.572c-.108.522-.384.994-.78 1.332-.398.338-.908.53-1.43.543a2.3 2.3 0 0 1-1.478-.439 2.19 2.19 0 0 1-.855-1.26 2.1 2.1 0 0 1 .1-1.522c.202-.49.57-.89 1.042-1.128a2.28 2.28 0 0 1 1.267-.358z"/>
</svg>
